<svg width="24" height="24" viewBox="0 0 24 24" fill="none" xmlns="http://www.w3.org/2000/svg">
<path d="M14.9068 12.7464L13.3025 1H13.1826C7.35214 1.00991 2.62503 5.72821 2.60425 11.5586V11.6786L14.9068 12.7464Z" fill="#ED6C47"/>
<path d="M13.4224 1H13.3025V11.6786L18.6508 13.8143L24 11.6786V11.5586C23.9792 5.72853 19.2526 1.01036 13.4224 1Z" fill="#FF8F6B"/>
<path d="M24 11.6786V11.796C23.9783 17.6271 19.2511 22.3459 13.42 22.3572H13.1843C7.35349 22.345 2.62682 17.6268 2.60425 11.796V11.6786H24Z" fill="#D35230"/>
<path opacity="0.1" d="M13.8373 6.2481V17.6421C13.8343 18.0385 13.5941 18.3945 13.2278 18.5457C13.1108 18.595 12.9851 18.6204 12.8582 18.6205H5.12933C4.97938 18.4485 4.8366 18.2703 4.70136 18.0865C3.33885 16.2728 2.60283 14.0653 2.60426 11.7969V11.5619C2.60167 9.51569 3.20069 7.51385 4.32679 5.80535C4.44357 5.62184 4.56856 5.44369 4.70136 5.27142H12.8582C13.3965 5.27499 13.8324 5.70979 13.8373 6.2481Z" fill="black"/>
<path opacity="0.2" d="M13.3025 6.78288V18.1769C13.3025 18.3034 13.2771 18.4285 13.2278 18.5449C13.0763 18.911 12.7204 19.1507 12.3242 19.1536H5.61644C5.44722 18.9817 5.28485 18.8037 5.12933 18.6197C4.97938 18.4477 4.8366 18.2695 4.70136 18.0857C3.33885 16.272 2.60283 14.0645 2.60426 11.7961V11.5611C2.60183 9.51518 3.20084 7.51364 4.32679 5.80538H12.3234C12.862 5.80895 13.2981 6.24425 13.3025 6.78288Z" fill="black"/>
<path opacity="0.2" d="M13.3025 6.78288V17.1091C13.2976 17.6474 12.8617 18.0822 12.3234 18.0857H4.70136C3.33885 16.272 2.60283 14.0645 2.60426 11.7961V11.5611C2.60183 9.51518 3.20084 7.51364 4.32679 5.80538H12.3234C12.862 5.80895 13.2981 6.24425 13.3025 6.78288Z" fill="black"/>
<path opacity="0.2" d="M12.7678 6.78288V17.1091C12.7629 17.6474 12.327 18.0822 11.7887 18.0857H4.70136C3.33885 16.272 2.60283 14.0645 2.60426 11.7961V11.5611C2.60183 9.51518 3.20084 7.51364 4.32679 5.80538H11.7887C12.3273 5.80895 12.7633 6.24425 12.7678 6.78288Z" fill="black"/>
<path d="M1.98079 5.80538H11.787C12.3279 5.80493 12.7669 6.24281 12.7678 6.78371V16.5735C12.7669 17.1144 12.3279 17.5523 11.787 17.5518H1.98079C1.72096 17.5523 1.47161 17.4494 1.28766 17.2659C1.1037 17.0824 1.00022 16.8333 1 16.5735V6.78371C1.00022 6.52388 1.1037 6.27479 1.28766 6.0913C1.47161 5.9078 1.72096 5.80495 1.98079 5.80538Z" fill="url(#paint0_linear_1340_28602)"/>
<path fill-rule="evenodd" clip-rule="evenodd" d="M8.77654 8.93828C8.26198 8.55806 7.62911 8.37291 6.99076 8.41585H4.40161V14.9232H5.67154V12.6232H6.91436C7.3652 12.6324 7.81218 12.5386 8.22126 12.3489C8.57929 12.1822 8.88141 11.9154 9.09115 11.5808C9.29846 11.2408 9.40472 10.8487 9.39754 10.4505C9.43433 9.87773 9.20526 9.31992 8.77654 8.93828ZM6.76405 11.6293H5.67073V9.42291H6.80677C7.64189 9.42346 8.05945 9.78215 8.05945 10.499C8.07995 10.8144 7.95962 11.1228 7.73088 11.341C7.45454 11.5517 7.1107 11.6543 6.76405 11.6293Z" fill="white"/>
<defs>
<linearGradient id="paint0_linear_1340_28602" x1="-3.60551" y1="8.86482" x2="4.0441" y2="22.161" gradientUnits="userSpaceOnUse">
<stop stop-color="#CA4C28"/>
<stop offset="0.5" stop-color="#C5401E"/>
<stop offset="1" stop-color="#B62F14"/>
</linearGradient>
</defs>
</svg>
