<svg width="24" height="24" viewBox="0 0 24 24" fill="none" xmlns="http://www.w3.org/2000/svg">
<path d="M15.4415 11.1446L6.34912 9.54282V21.3788C6.34934 21.6384 6.45271 21.8874 6.63649 22.0709C6.82026 22.2543 7.0694 22.3573 7.32908 22.3571H23.0183C23.2783 22.3577 23.5279 22.255 23.712 22.0715C23.8961 21.8879 23.9997 21.6387 23.9999 21.3788V17.0178L15.4415 11.1446Z" fill="#185C37"/>
<path d="M15.4415 1H7.32908C7.0694 0.999782 6.82026 1.10273 6.63649 1.2862C6.45271 1.46967 6.34934 1.71864 6.34912 1.97832V6.33928L15.4415 11.6786L20.2559 13.2803L23.9999 11.6786V6.33928L15.4415 1Z" fill="#21A366"/>
<path d="M6.34912 6.33928H15.4415V11.6786H6.34912V6.33928Z" fill="#107C41"/>
<path opacity="0.1" d="M12.8565 5.27141H6.34912V18.6196H12.8565C13.3961 18.6169 13.8332 18.1809 13.8372 17.6413V6.24973C13.8332 5.71014 13.3961 5.27409 12.8565 5.27141Z" fill="black"/>
<path opacity="0.2" d="M12.3217 5.80537H6.34912V19.1536H12.3217C12.8613 19.1509 13.2985 18.7148 13.3025 18.1752V6.78369C13.2985 6.24411 12.8613 5.80806 12.3217 5.80537V5.80537Z" fill="black"/>
<path opacity="0.2" d="M12.3217 5.80537H6.34912V18.0857H12.3217C12.8613 18.083 13.2985 17.647 13.3025 17.1074V6.78369C13.2985 6.24411 12.8613 5.80806 12.3217 5.80537V5.80537Z" fill="black"/>
<path opacity="0.2" d="M11.787 5.80537H6.34912V18.0857H11.787C12.3266 18.083 12.7637 17.647 12.7678 17.1074V6.78369C12.7637 6.24411 12.3266 5.80806 11.787 5.80537V5.80537Z" fill="black"/>
<path d="M1.98078 5.80538H11.787C12.3279 5.80492 12.7669 6.2428 12.7678 6.78369V16.5735C12.7669 17.1144 12.3279 17.5522 11.787 17.5518H1.98078C1.72096 17.5522 1.47161 17.4494 1.28765 17.2659C1.1037 17.0824 1.00022 16.8333 1 16.5735V6.78369C1.00022 6.52387 1.1037 6.27478 1.28765 6.09129C1.47161 5.90779 1.72096 5.80494 1.98078 5.80538Z" fill="url(#paint0_linear_1340_28639)"/>
<path d="M4.03931 14.86L6.10191 11.6695L4.21263 8.49718H5.7298L6.76069 10.5286C6.85598 10.7208 6.92498 10.8637 6.95619 10.959H6.97016C7.03752 10.8046 7.10898 10.6559 7.18373 10.5105L8.28608 8.50046H9.68251L7.74476 11.6547L9.7318 14.8624H8.24583L7.05477 12.6355C6.99946 12.5398 6.95247 12.4395 6.9143 12.3357H6.89459C6.85986 12.4368 6.81355 12.5336 6.75659 12.624L5.5302 14.86H4.03931Z" fill="white"/>
<path d="M23.0193 1H15.4417V6.33928H24.0001V1.97832C23.9999 1.71849 23.8964 1.46941 23.7124 1.28591C23.5285 1.10242 23.2791 0.999565 23.0193 1Z" fill="#33C481"/>
<path d="M15.4417 11.6786H24.0001V17.0178H15.4417V11.6786Z" fill="#107C41"/>
<defs>
<linearGradient id="paint0_linear_1340_28639" x1="-3.60549" y1="8.8648" x2="4.04409" y2="22.1609" gradientUnits="userSpaceOnUse">
<stop stop-color="#18884F"/>
<stop offset="0.5" stop-color="#117E43"/>
<stop offset="1" stop-color="#0B6631"/>
</linearGradient>
</defs>
</svg>
