<svg width="24" height="24" viewBox="0 0 24 24" fill="none" xmlns="http://www.w3.org/2000/svg">
<path d="M5.92383 1H16.0738C18.6272 2.80843 20.8536 5.03897 22.6573 7.59575V23.2075H5.92383V1Z" fill="url(#paint0_linear_1340_28658)"/>
<path fill-rule="evenodd" clip-rule="evenodd" d="M5.92383 1H16.0738C18.6272 2.80843 20.8536 5.03897 22.6573 7.59575V23.2075H5.92383V1Z" stroke="#C8C8C8" stroke-width="0.5"/>
<path d="M16.0718 1C18.622 2.81278 20.8483 5.04263 22.657 7.59575C21.4398 6.34476 19.7325 5.69477 17.9915 5.8195C18.241 3.98751 17.5125 2.15871 16.0718 1L16.0718 1Z" fill="url(#paint1_linear_1340_28658)"/>
<path fill-rule="evenodd" clip-rule="evenodd" d="M16.0718 1C18.622 2.81278 20.8483 5.04263 22.657 7.59575C21.4398 6.34476 19.7325 5.69477 17.9915 5.8195C18.241 3.98751 17.5125 2.15871 16.0718 1L16.0718 1Z" stroke="#C8C8C8" stroke-width="0.5"/>
<path fill-rule="evenodd" clip-rule="evenodd" d="M2.66431 3.91724H15.0018V6.27974H2.66431V3.91724Z" stroke="#C8C8C8" stroke-width="3.5"/>
<path fill-rule="evenodd" clip-rule="evenodd" d="M11.9255 15.4278C11.8949 15.4879 11.8645 15.5474 11.8344 15.6064L11.8318 15.6038C10.1483 18.8982 8.84015 20.6762 7.96515 20.8004V20.7645C7.94678 20.3533 8.7054 19.2937 9.73353 18.451C9.84028 18.3644 10.2979 17.9217 10.2979 17.9217C10.2979 17.9217 9.68015 18.2445 9.5419 18.332C8.2539 19.1012 7.61253 19.872 7.5084 20.383C7.45956 20.5335 7.50864 20.6985 7.63178 20.7978L7.96165 20.9632C8.85765 21.412 9.96015 20.2325 11.4258 17.6635C13.0729 17.1279 14.7608 16.7267 16.4728 16.4639C17.9892 17.3302 19.7287 17.7397 20.3972 17.5647C20.5276 17.5248 20.6427 17.446 20.727 17.3389C20.7826 17.202 20.8254 17.0602 20.8548 16.9154C20.7924 17.0027 20.7147 17.078 20.6255 17.1377C20.2029 17.3372 18.8668 17.0038 17.4965 16.3335C18.3919 16.1889 19.3057 16.2016 20.1968 16.3712C20.8662 16.5864 20.8662 16.8043 20.8574 16.8489C20.8775 16.768 20.8895 16.6854 20.8933 16.6022C20.8856 16.4428 20.8192 16.292 20.7069 16.1787C20.1972 15.873 19.6025 15.7401 19.0112 15.7998C18.2739 15.7999 17.5378 15.8552 16.8088 15.9652C16.4203 15.7582 16.0563 15.5081 15.7238 15.2197C14.8772 14.4027 14.2343 13.3984 13.8469 12.2875C13.8758 12.1773 13.9029 12.0688 13.9274 11.9594C14.0429 11.4423 14.1252 9.73078 14.1252 9.73078C14.1252 9.73078 13.7979 11.0162 13.7463 11.2104C13.7113 11.3338 13.671 11.465 13.6238 11.6015C13.393 10.8257 13.2656 10.0228 13.2449 9.21366C13.2453 8.93842 13.2679 8.66366 13.3123 8.39203C13.3155 8.25339 13.3795 8.12318 13.4873 8.03591C13.6369 8.07353 13.804 8.30191 13.979 8.68603C14.0927 8.99077 14.1407 9.31608 14.1199 9.64066C14.205 9.33536 14.2465 9.01957 14.2433 8.70266C14.2205 8.49353 14.0219 7.95541 13.5984 7.96153H13.3762C13.0902 7.93583 12.8203 8.0978 12.7085 8.36228C12.4487 9.31953 12.7392 10.8 13.2239 12.6445L13.0769 13.0015C12.7365 13.8395 12.3105 14.6738 11.9255 15.4278ZM11.5553 17.3485C11.8314 16.8613 12.1015 16.3707 12.3655 15.8768H12.3612C12.8039 15.0468 13.189 14.1872 13.5135 13.3043C13.9574 14.2169 14.5826 15.0294 15.351 15.6922C15.5299 15.8425 15.7159 15.9841 15.9084 16.1165C14.4181 16.373 12.959 16.786 11.5553 17.3485Z" fill="#F91D0A"/>
<path d="M1.27393 2.58026H16.3799V7.65789H1.27393V2.58026Z" fill="url(#paint2_linear_1340_28658)"/>
<path fill-rule="evenodd" clip-rule="evenodd" d="M1 7.96238H16.6678V2.27576H1V7.96238ZM1.5635 2.83926H16.1051V7.39713H1.5635V2.83926Z" fill="url(#paint3_linear_1340_28658)"/>
<path fill-rule="evenodd" clip-rule="evenodd" d="M5.22192 3.32484H6.32092C6.60176 3.30687 6.87639 3.41269 7.07255 3.61447C7.261 3.84451 7.35485 4.13763 7.33505 4.43434C7.35483 4.73239 7.26104 5.02688 7.07255 5.25859C6.87592 5.45941 6.60135 5.56425 6.32092 5.54559H5.88342V6.72597H5.22192V3.32484ZM5.8843 3.96359V4.91034H6.25092C6.36372 4.91678 6.47329 4.87135 6.54842 4.78697C6.62345 4.68626 6.66062 4.56235 6.65342 4.43697C6.66146 4.31149 6.62421 4.1873 6.54842 4.08697C6.47336 4.00248 6.36375 3.95703 6.25092 3.96359H5.8843ZM8.46467 6.06359V3.99422H8.7018C8.93874 3.97855 9.16913 4.07589 9.32305 4.25672C9.47986 4.48157 9.55518 4.75323 9.53655 5.02672C9.55519 5.30184 9.47924 5.57506 9.3213 5.80109C9.16819 5.98199 8.93826 6.07941 8.7018 6.06359H8.46467ZM7.8023 3.33097H8.5023C8.7947 3.31607 9.08748 3.35189 9.36767 3.43684C9.5633 3.51296 9.73366 3.6424 9.85942 3.81047C9.98229 3.96859 10.0735 4.14892 10.128 4.34159C10.1893 4.56352 10.2188 4.79302 10.2155 5.02322C10.2188 5.25544 10.1893 5.48695 10.128 5.71097C10.0735 5.90364 9.98229 6.08398 9.85942 6.24209C9.73207 6.41066 9.56071 6.54085 9.36417 6.61834C9.0834 6.70358 8.7902 6.74056 8.49705 6.72772H7.79705V3.32484L7.8023 3.33097ZM12.5177 3.32484H10.7265V6.72597H11.3889V5.28397H12.4468V4.62072H11.3889V3.98809H12.5177V3.32484Z" fill="#FFF9F9"/>
<defs>
<linearGradient id="paint0_linear_1340_28658" x1="15.0235" y1="22.5037" x2="23.6302" y2="13.6719" gradientUnits="userSpaceOnUse">
<stop stop-color="white"/>
<stop offset="1" stop-color="#E1E1E1"/>
</linearGradient>
<linearGradient id="paint1_linear_1340_28658" x1="19.043" y1="5.47463" x2="19.9964" y2="4.59852" gradientUnits="userSpaceOnUse">
<stop stop-color="white"/>
<stop offset="1" stop-color="#C8C8C8"/>
</linearGradient>
<linearGradient id="paint2_linear_1340_28658" x1="23.7304" y1="9.14215" x2="23.3953" y2="0.0140958" gradientUnits="userSpaceOnUse">
<stop offset="0.127" stop-color="#8A0000"/>
<stop offset="0.244" stop-color="#900000" stop-opacity="0.999"/>
<stop offset="0.398" stop-color="#A00000" stop-opacity="0.999"/>
<stop offset="0.573" stop-color="#BC0000" stop-opacity="0.998"/>
<stop offset="0.761" stop-color="#E20000" stop-opacity="0.997"/>
<stop offset="0.867" stop-color="#FA0000" stop-opacity="0.996"/>
</linearGradient>
<linearGradient id="paint3_linear_1340_28658" x1="23.847" y1="9.41859" x2="23.4248" y2="-0.447223" gradientUnits="userSpaceOnUse">
<stop offset="0.315" stop-color="#5E0000"/>
<stop offset="0.444" stop-color="#830000" stop-opacity="0.999"/>
<stop offset="0.618" stop-color="#AE0000" stop-opacity="0.998"/>
<stop offset="0.775" stop-color="#CD0000" stop-opacity="0.997"/>
<stop offset="0.908" stop-color="#E00000" stop-opacity="0.996"/>
<stop offset="1" stop-color="#E70000" stop-opacity="0.996"/>
</linearGradient>
</defs>
</svg>
