<svg width="24" height="24" viewBox="0 0 24 24" fill="none" xmlns="http://www.w3.org/2000/svg">
<path d="M23.0192 1H7.32909C7.0694 0.999783 6.82027 1.10273 6.63649 1.2862C6.45271 1.46968 6.34934 1.71864 6.34912 1.97832V6.33929L15.4415 9.00893L24 6.33929V1.97832C23.9998 1.7185 23.8963 1.46941 23.7123 1.28591C23.5284 1.10242 23.279 0.999565 23.0192 1Z" fill="#41A5EE"/>
<path d="M24 6.33928H6.34912V11.6786L15.4415 13.2804L24 11.6786V6.33928Z" fill="#2B7CD3"/>
<path d="M6.34912 11.6786V17.0179L14.9068 18.0857L24 17.0179V11.6786H6.34912Z" fill="#185ABD"/>
<path d="M7.32909 22.3571H23.0184C23.2783 22.3578 23.5279 22.255 23.712 22.0715C23.8962 21.888 23.9998 21.6388 24 21.3788V17.0179H6.34912V21.3788C6.34934 21.6385 6.45271 21.8875 6.63649 22.0709C6.82027 22.2544 7.0694 22.3574 7.32909 22.3571Z" fill="#103F91"/>
<path opacity="0.1" d="M12.8565 5.27142H6.34912V18.6196H12.8565C13.3961 18.617 13.8332 18.1809 13.8373 17.6413V6.24974C13.8332 5.71016 13.3961 5.27411 12.8565 5.27142Z" fill="black"/>
<path opacity="0.2" d="M12.3217 5.80537H6.34912V19.1536H12.3217C12.8613 19.1509 13.2985 18.7149 13.3025 18.1753V6.7837C13.2985 6.24411 12.8613 5.80806 12.3217 5.80537V5.80537Z" fill="black"/>
<path opacity="0.2" d="M12.3217 5.80537H6.34912V18.0857H12.3217C12.8613 18.083 13.2985 17.647 13.3025 17.1074V6.7837C13.2985 6.24411 12.8613 5.80806 12.3217 5.80537V5.80537Z" fill="black"/>
<path opacity="0.2" d="M11.787 5.80537H6.34912V18.0857H11.787C12.3266 18.083 12.7637 17.647 12.7678 17.1074V6.7837C12.7637 6.24411 12.3266 5.80806 11.787 5.80537V5.80537Z" fill="black"/>
<path d="M1.98079 5.80538H11.787C12.3279 5.80492 12.7669 6.2428 12.7678 6.7837V16.5735C12.7669 17.1144 12.3279 17.5523 11.787 17.5518H1.98079C1.72096 17.5522 1.47161 17.4494 1.28766 17.2659C1.1037 17.0824 1.00022 16.8333 1 16.5735V6.7837C1.00022 6.52387 1.1037 6.27478 1.28766 6.09129C1.47161 5.90779 1.72096 5.80494 1.98079 5.80538Z" fill="url(#paint0_linear_1340_28621)"/>
<path d="M5.0249 13.3116C5.04379 13.4627 5.05694 13.5941 5.06269 13.7067H5.08569C5.0939 13.5999 5.11197 13.4709 5.13908 13.3206C5.16619 13.1703 5.19001 13.0429 5.21219 12.9386L6.24308 8.49716H7.57708L8.64494 12.8721C8.70713 13.1427 8.75159 13.4171 8.77801 13.6935H8.79608C8.8157 13.4244 8.85274 13.1569 8.90697 12.8926L9.76044 8.49141H10.9737L9.4754 14.8558H8.05679L7.04069 10.6452C7.01111 10.5236 6.97771 10.3654 6.94047 10.1704C6.90323 9.97546 6.88023 9.83308 6.87147 9.74327H6.85422C6.84272 9.84677 6.81972 10.0004 6.78522 10.2041C6.75072 10.4086 6.72361 10.5589 6.70308 10.6575L5.74776 14.8583H4.30533L2.79883 8.49716H4.03097L4.96001 12.9477C4.98773 13.0678 5.00939 13.1892 5.0249 13.3116Z" fill="white"/>
<defs>
<linearGradient id="paint0_linear_1340_28621" x1="-3.6055" y1="8.86481" x2="4.0441" y2="22.161" gradientUnits="userSpaceOnUse">
<stop stop-color="#2368C4"/>
<stop offset="0.5" stop-color="#1A5DBE"/>
<stop offset="1" stop-color="#1146AC"/>
</linearGradient>
</defs>
</svg>
